<svg width="52" height="52" viewBox="0 0 52 52" fill="none" xmlns="http://www.w3.org/2000/svg">
<circle cx="26" cy="26" r="26" fill="#FF7255"/>
<path fill-rule="evenodd" clip-rule="evenodd" d="M22.2376 22.2379C22.2376 20.1596 23.9224 18.4748 26.0008 18.4748C28.0791 18.4748 29.7639 20.1596 29.7639 22.2379C29.7639 24.3163 28.0791 26.0011 26.0008 26.0011C23.9224 26.0011 22.2376 24.3163 22.2376 22.2379ZM26.0008 20.3563C24.9616 20.3563 24.1192 21.1988 24.1192 22.2379C24.1192 23.2771 24.9616 24.1195 26.0008 24.1195C27.0399 24.1195 27.8823 23.2771 27.8823 22.2379C27.8823 21.1988 27.0399 20.3563 26.0008 20.3563Z" fill="white"/>
<path d="M23.1784 30.705C23.1784 30.2882 23.4015 29.839 23.9043 29.4619C24.4074 29.0846 25.1455 28.8234 26.0008 28.8234C26.8561 28.8234 27.5942 29.0846 28.0973 29.4619C28.6 29.839 28.8231 30.2882 28.8231 30.705C28.8231 31.2246 29.2443 31.6458 29.7639 31.6458C30.2835 31.6458 30.7047 31.2246 30.7047 30.705C30.7047 29.5631 30.0854 28.6011 29.2262 27.9567C28.3673 27.3125 27.2238 26.9419 26.0008 26.9419C24.7777 26.9419 23.6343 27.3125 22.7753 27.9567C21.9161 28.6011 21.2968 29.5631 21.2968 30.705C21.2968 31.2246 21.718 31.6458 22.2376 31.6458C22.7572 31.6458 23.1784 31.2246 23.1784 30.705Z" fill="white"/>
<path fill-rule="evenodd" clip-rule="evenodd" d="M24.7292 38.3181C25.4336 38.9905 26.5346 39.0143 27.2674 38.3731L32.2733 33.9929C32.6163 33.6928 33.0566 33.5273 33.5124 33.5273H34.4679C36.5462 33.5273 38.231 31.8425 38.231 29.7642V19.4155C38.231 17.3372 36.5462 15.6523 34.4679 15.6523L17.5337 15.6523C15.4553 15.6523 13.7705 17.3372 13.7705 19.4155L13.7705 29.7642C13.7705 31.8425 15.4553 33.5273 17.5337 33.5273H18.9564C19.4403 33.5273 19.9056 33.7138 20.2556 34.0479L24.7292 38.3181ZM31.0343 32.5769L26.0284 36.9571L21.5548 32.6868C20.8548 32.0186 19.9242 31.6458 18.9564 31.6458H17.5337C16.4945 31.6458 15.6521 30.8034 15.6521 29.7642V19.4155C15.6521 18.3763 16.4945 17.5339 17.5337 17.5339H34.4679C35.507 17.5339 36.3495 18.3763 36.3495 19.4155V29.7642C36.3495 30.8034 35.507 31.6458 34.4679 31.6458H33.5124C32.6008 31.6458 31.7203 31.9766 31.0343 32.5769Z" fill="white"/>
</svg>
