<svg width="52" height="52" viewBox="0 0 52 52" fill="none" xmlns="http://www.w3.org/2000/svg">
<circle cx="26" cy="26" r="26" fill="#FF7255"/>
<g clip-path="url(#clip0_10063_92077)">
<path fill-rule="evenodd" clip-rule="evenodd" d="M33.3877 29.7248L34.5619 29.1615C37.7332 27.6404 39.1719 25.5853 39.1719 23.77C39.1719 22.1861 38.0957 20.4336 35.6745 18.9764C33.2898 17.5412 29.8741 16.5925 26.0009 16.5925C22.1276 16.5925 18.712 17.5412 16.3273 18.9764C13.906 20.4336 12.8298 22.1861 12.8298 23.77C12.8298 25.3538 13.906 27.1064 16.3273 28.5636C18.712 29.9987 22.1276 30.9475 26.0009 30.9475C26.7446 30.9475 27.4734 30.9124 28.1828 30.8452L28.9007 30.7772L33.7972 34.404L33.3877 29.7248ZM35.3757 30.858L35.8313 36.0645C35.9131 37.0003 34.9799 37.6216 34.2758 37.1001L28.3603 32.7184C27.5916 32.7912 26.8036 32.829 26.0009 32.829C17.6875 32.829 10.9482 28.7732 10.9482 23.77C10.9482 18.7668 17.6875 14.7109 26.0009 14.7109C34.3142 14.7109 41.0535 18.7668 41.0535 23.77C41.0535 26.64 38.8359 29.1983 35.3757 30.858Z" fill="white"/>
<path d="M22.2377 23.6484C22.2377 24.4278 21.6059 25.0596 20.8265 25.0596C20.0472 25.0596 19.4153 24.4278 19.4153 23.6484C19.4153 22.8691 20.0472 22.2373 20.8265 22.2373C21.6059 22.2373 22.2377 22.8691 22.2377 23.6484Z" fill="white"/>
<path d="M27.1769 23.6484C27.1769 24.4278 26.5451 25.0596 25.7657 25.0596C24.9863 25.0596 24.3545 24.4278 24.3545 23.6484C24.3545 22.8691 24.9863 22.2373 25.7657 22.2373C26.5451 22.2373 27.1769 22.8691 27.1769 23.6484Z" fill="white"/>
<path d="M32.116 23.6484C32.116 24.4278 31.4842 25.0596 30.7048 25.0596C29.9254 25.0596 29.2936 24.4278 29.2936 23.6484C29.2936 22.8691 29.9254 22.2373 30.7048 22.2373C31.4842 22.2373 32.116 22.8691 32.116 23.6484Z" fill="white"/>
</g>
<defs>
<clipPath id="clip0_10063_92077">
<rect width="30.1053" height="30.1053" fill="white" transform="translate(10.9482 10.9492)"/>
</clipPath>
</defs>
</svg>
