<svg width="52" height="52" viewBox="0 0 52 52" fill="none" xmlns="http://www.w3.org/2000/svg">
<circle cx="26" cy="26" r="26" fill="#FF7255"/>
<g clip-path="url(#clip0_10063_57091)">
<path fill-rule="evenodd" clip-rule="evenodd" d="M26.0011 13.7722C21.3249 13.7722 17.534 17.5631 17.534 22.2393C19.0928 22.2393 20.3564 23.5029 20.3564 25.0617V30.7064C20.3564 32.2652 19.0928 33.5288 17.534 33.5288H15.6524C14.0937 33.5288 12.8301 32.2652 12.8301 30.7064V25.0617C12.8301 23.5029 14.0937 22.2393 15.6524 22.2393C15.6524 16.5239 20.2857 11.8906 26.0011 11.8906C31.7165 11.8906 36.3498 16.5239 36.3498 22.2393C37.9086 22.2393 39.1722 23.5029 39.1722 25.0617V30.7064C39.1722 32.2652 37.9086 33.5288 36.3498 33.5288H36.2831C35.8637 36.4609 33.5129 38.7699 30.5608 39.1258C30.1872 40.2469 29.1293 41.0551 27.8827 41.0551C26.324 41.0551 25.0603 39.7915 25.0603 38.2327C25.0603 36.674 26.324 35.4104 27.8827 35.4104C29.0888 35.4104 30.1181 36.1668 30.5222 37.2312C32.4522 36.9186 33.9885 35.4317 34.3744 33.5273C32.8591 33.4778 31.6459 32.2338 31.6459 30.7064V25.0617C31.6459 23.5029 32.9095 22.2393 34.4682 22.2393C34.4682 17.5631 30.6774 13.7722 26.0011 13.7722ZM28.8235 38.2327C28.8235 37.7131 28.4023 37.2919 27.8827 37.2919C27.3631 37.2919 26.9419 37.7131 26.9419 38.2327C26.9419 38.7523 27.3631 39.1735 27.8827 39.1735C28.4023 39.1735 28.8235 38.7523 28.8235 38.2327ZM14.7117 25.0617C14.7117 24.5421 15.1329 24.1209 15.6524 24.1209H17.534C18.0536 24.1209 18.4748 24.5421 18.4748 25.0617V30.7064C18.4748 31.226 18.0536 31.6472 17.534 31.6472H15.6524C15.1329 31.6472 14.7117 31.226 14.7117 30.7064L14.7117 25.0617ZM34.4682 24.1209C33.9487 24.1209 33.5274 24.5421 33.5274 25.0617V30.7064C33.5274 31.226 33.9487 31.6472 34.4682 31.6472H36.3498C36.8694 31.6472 37.2906 31.226 37.2906 30.7064V25.0617C37.2906 24.5421 36.8694 24.1209 36.3498 24.1209H34.4682Z" fill="white"/>
</g>
<defs>
<clipPath id="clip0_10063_57091">
<rect width="30.1053" height="30.1053" fill="white" transform="translate(10.9482 10.9492)"/>
</clipPath>
</defs>
</svg>
