<svg width="52" height="52" viewBox="0 0 52 52" fill="none" xmlns="http://www.w3.org/2000/svg">
<circle cx="26" cy="26" r="26" fill="#FF7255"/>
<path fill-rule="evenodd" clip-rule="evenodd" d="M25.9962 12.6836V20.5477C28.8864 20.3447 31.2623 20.752 33.1948 21.6133C35.3616 22.5791 36.911 24.0892 37.982 25.8257C40.1012 29.2616 40.3485 33.574 39.9597 36.4757C39.9006 36.9163 39.5412 37.2555 39.0979 37.2889C38.6546 37.3223 38.2484 37.0408 38.124 36.614C37.2209 33.5156 34.9585 31.7376 32.3833 30.7653C30.1618 29.9265 27.7663 29.7156 25.9962 29.7921V38.5001L11.4102 25.0306L25.9962 12.6836ZM14.25 25.0919L24.1146 34.2014V28.0728L24.9555 27.983C26.9764 27.7671 30.118 27.8987 33.048 29.005C34.9505 29.7234 36.7963 30.8685 38.1667 32.616C37.9955 30.6596 37.4681 28.5767 36.3806 26.8134C35.4859 25.3629 34.2131 24.1272 32.4288 23.3319C30.639 22.5342 28.2752 22.1536 25.1639 22.5148L24.1146 22.6367V16.7415L14.25 25.0919Z" fill="white"/>
</svg>
